<?xml version="1.0" encoding="UTF-8" ?>
<svg version="1.1" width="512" height="1" xmlns="http://www.w3.org/2000/svg" shape-rendering="crispEdges">
<rect x="0" y="0" width="1" height="1" fill="#9E0F1C" />
<rect x="1" y="0" width="1" height="1" fill="#9E0F1C" />
<rect x="2" y="0" width="1" height="1" fill="#9E0F1C" />
<rect x="3" y="0" width="1" height="1" fill="#9E0F1C" />
<rect x="4" y="0" width="1" height="1" fill="#9E0F1C" />
<rect x="5" y="0" width="1" height="1" fill="#9E0F1C" />
<rect x="6" y="0" width="1" height="1" fill="#9E0F1C" />
<rect x="7" y="0" width="1" height="1" fill="#9E0F1C" />
<rect x="8" y="0" width="1" height="1" fill="#9E0F1C" />
<rect x="9" y="0" width="1" height="1" fill="#9E0F1C" />
<rect x="10" y="0" width="1" height="1" fill="#9E0F1C" />
<rect x="11" y="0" width="1" height="1" fill="#9E0F1C" />
<rect x="12" y="0" width="1" height="1" fill="#9E0F1C" />
<rect x="13" y="0" width="1" height="1" fill="#9E0F1C" />
<rect x="14" y="0" width="1" height="1" fill="#9E0F1C" />
<rect x="15" y="0" width="1" height="1" fill="#9E0F1C" />
<rect x="16" y="0" width="1" height="1" fill="#9E0F1C" />
<rect x="17" y="0" width="1" height="1" fill="#9E0F1C" />
<rect x="18" y="0" width="1" height="1" fill="#9E0F1C" />
<rect x="19" y="0" width="1" height="1" fill="#9E0F1C" />
<rect x="20" y="0" width="1" height="1" fill="#9E0F1C" />
<rect x="21" y="0" width="1" height="1" fill="#9E0F1C" />
<rect x="22" y="0" width="1" height="1" fill="#9E0F1C" />
<rect x="23" y="0" width="1" height="1" fill="#9E0F1C" />
<rect x="24" y="0" width="1" height="1" fill="#9E0F1C" />
<rect x="25" y="0" width="1" height="1" fill="#9E0F1C" />
<rect x="26" y="0" width="1" height="1" fill="#9E0F1C" />
<rect x="27" y="0" width="1" height="1" fill="#9E0F1C" />
<rect x="28" y="0" width="1" height="1" fill="#9E0F1C" />
<rect x="29" y="0" width="1" height="1" fill="#9E0F1C" />
<rect x="30" y="0" width="1" height="1" fill="#9E0F1C" />
<rect x="31" y="0" width="1" height="1" fill="#9E0F1C" />
<rect x="32" y="0" width="1" height="1" fill="#9E0F1C" />
<rect x="33" y="0" width="1" height="1" fill="#9E0F1C" />
<rect x="34" y="0" width="1" height="1" fill="#9E0F1C" />
<rect x="35" y="0" width="1" height="1" fill="#9E0F1C" />
<rect x="36" y="0" width="1" height="1" fill="#9E0F1C" />
<rect x="37" y="0" width="1" height="1" fill="#9E0F1C" />
<rect x="38" y="0" width="1" height="1" fill="#9E0F1C" />
<rect x="39" y="0" width="1" height="1" fill="#9E0F1C" />
<rect x="40" y="0" width="1" height="1" fill="#9E0F1C" />
<rect x="41" y="0" width="1" height="1" fill="#9E0F1C" />
<rect x="42" y="0" width="1" height="1" fill="#9E0F1C" />
<rect x="43" y="0" width="1" height="1" fill="#9E0F1C" />
<rect x="44" y="0" width="1" height="1" fill="#9E0F1C" />
<rect x="45" y="0" width="1" height="1" fill="#9E0F1C" />
<rect x="46" y="0" width="1" height="1" fill="#9E0F1C" />
<rect x="47" y="0" width="1" height="1" fill="#9E0F1C" />
<rect x="48" y="0" width="1" height="1" fill="#9E0F1C" />
<rect x="49" y="0" width="1" height="1" fill="#9E0F1C" />
<rect x="50" y="0" width="1" height="1" fill="#9E0F1C" />
<rect x="51" y="0" width="1" height="1" fill="#9E0F1C" />
<rect x="52" y="0" width="1" height="1" fill="#9E0F1C" />
<rect x="53" y="0" width="1" height="1" fill="#9E0F1C" />
<rect x="54" y="0" width="1" height="1" fill="#9E0F1C" />
<rect x="55" y="0" width="1" height="1" fill="#9E0F1C" />
<rect x="56" y="0" width="1" height="1" fill="#9E0F1C" />
<rect x="57" y="0" width="1" height="1" fill="#9E0F1C" />
<rect x="58" y="0" width="1" height="1" fill="#9E0F1C" />
<rect x="59" y="0" width="1" height="1" fill="#9E0F1C" />
<rect x="60" y="0" width="1" height="1" fill="#9E0F1C" />
<rect x="61" y="0" width="1" height="1" fill="#9E0F1C" />
<rect x="62" y="0" width="1" height="1" fill="#9E0F1C" />
<rect x="63" y="0" width="1" height="1" fill="#9E0F1C" />
<rect x="64" y="0" width="1" height="1" fill="#9E0F1C" />
<rect x="65" y="0" width="1" height="1" fill="#9E0F1C" />
<rect x="66" y="0" width="1" height="1" fill="#9E0F1C" />
<rect x="67" y="0" width="1" height="1" fill="#9E0F1C" />
<rect x="68" y="0" width="1" height="1" fill="#9E0F1C" />
<rect x="69" y="0" width="1" height="1" fill="#9E0F1C" />
<rect x="70" y="0" width="1" height="1" fill="#9E0F1C" />
<rect x="71" y="0" width="1" height="1" fill="#9E0F1C" />
<rect x="72" y="0" width="1" height="1" fill="#9E0F1C" />
<rect x="73" y="0" width="1" height="1" fill="#9E0F1C" />
<rect x="74" y="0" width="1" height="1" fill="#9E0F1C" />
<rect x="75" y="0" width="1" height="1" fill="#9E0F1C" />
<rect x="76" y="0" width="1" height="1" fill="#9E0F1C" />
<rect x="77" y="0" width="1" height="1" fill="#9E0F1C" />
<rect x="78" y="0" width="1" height="1" fill="#9E0F1C" />
<rect x="79" y="0" width="1" height="1" fill="#9E0F1C" />
<rect x="80" y="0" width="1" height="1" fill="#9E0F1C" />
<rect x="81" y="0" width="1" height="1" fill="#9E0F1C" />
<rect x="82" y="0" width="1" height="1" fill="#9E0F1C" />
<rect x="83" y="0" width="1" height="1" fill="#9E0F1C" />
<rect x="84" y="0" width="1" height="1" fill="#9E0F1C" />
<rect x="85" y="0" width="1" height="1" fill="#9E0F1C" />
<rect x="86" y="0" width="1" height="1" fill="#9E0F1C" />
<rect x="87" y="0" width="1" height="1" fill="#9E0F1C" />
<rect x="88" y="0" width="1" height="1" fill="#9E0F1C" />
<rect x="89" y="0" width="1" height="1" fill="#9E0F1C" />
<rect x="90" y="0" width="1" height="1" fill="#9E0F1C" />
<rect x="91" y="0" width="1" height="1" fill="#9E0F1C" />
<rect x="92" y="0" width="1" height="1" fill="#9E0F1C" />
<rect x="93" y="0" width="1" height="1" fill="#9E0F1C" />
<rect x="94" y="0" width="1" height="1" fill="#9E0F1C" />
<rect x="95" y="0" width="1" height="1" fill="#9E0F1C" />
<rect x="96" y="0" width="1" height="1" fill="#9E0F1C" />
<rect x="97" y="0" width="1" height="1" fill="#9E0F1C" />
<rect x="98" y="0" width="1" height="1" fill="#9E0F1C" />
<rect x="99" y="0" width="1" height="1" fill="#9E0F1C" />
<rect x="100" y="0" width="1" height="1" fill="#9E0F1C" />
<rect x="101" y="0" width="1" height="1" fill="#9E0F1C" />
<rect x="102" y="0" width="1" height="1" fill="#9E0F1C" />
<rect x="103" y="0" width="1" height="1" fill="#9E0F1C" />
<rect x="104" y="0" width="1" height="1" fill="#9E0F1C" />
<rect x="105" y="0" width="1" height="1" fill="#9E0F1C" />
<rect x="106" y="0" width="1" height="1" fill="#9E0F1C" />
<rect x="107" y="0" width="1" height="1" fill="#9E0F1C" />
<rect x="108" y="0" width="1" height="1" fill="#9E0F1C" />
<rect x="109" y="0" width="1" height="1" fill="#9E0F1C" />
<rect x="110" y="0" width="1" height="1" fill="#9E0F1C" />
<rect x="111" y="0" width="1" height="1" fill="#9E0F1C" />
<rect x="112" y="0" width="1" height="1" fill="#9E0F1C" />
<rect x="113" y="0" width="1" height="1" fill="#9E0F1C" />
<rect x="114" y="0" width="1" height="1" fill="#9E0F1C" />
<rect x="115" y="0" width="1" height="1" fill="#9E0F1C" />
<rect x="116" y="0" width="1" height="1" fill="#9E0F1C" />
<rect x="117" y="0" width="1" height="1" fill="#9E0F1C" />
<rect x="118" y="0" width="1" height="1" fill="#9E0F1C" />
<rect x="119" y="0" width="1" height="1" fill="#9E0F1C" />
<rect x="120" y="0" width="1" height="1" fill="#9E0F1C" />
<rect x="121" y="0" width="1" height="1" fill="#9E0F1C" />
<rect x="122" y="0" width="1" height="1" fill="#9E0F1C" />
<rect x="123" y="0" width="1" height="1" fill="#9E0F1C" />
<rect x="124" y="0" width="1" height="1" fill="#9E0F1C" />
<rect x="125" y="0" width="1" height="1" fill="#9E0F1C" />
<rect x="126" y="0" width="1" height="1" fill="#9E0F1C" />
<rect x="127" y="0" width="1" height="1" fill="#9E0F1C" />
<rect x="128" y="0" width="1" height="1" fill="#9E0F1C" />
<rect x="129" y="0" width="1" height="1" fill="#9E0F1C" />
<rect x="130" y="0" width="1" height="1" fill="#9E0F1C" />
<rect x="131" y="0" width="1" height="1" fill="#9E0F1C" />
<rect x="132" y="0" width="1" height="1" fill="#9E0F1C" />
<rect x="133" y="0" width="1" height="1" fill="#9E0F1C" />
<rect x="134" y="0" width="1" height="1" fill="#9E0F1C" />
<rect x="135" y="0" width="1" height="1" fill="#9E0F1C" />
<rect x="136" y="0" width="1" height="1" fill="#9E0F1C" />
<rect x="137" y="0" width="1" height="1" fill="#9E0F1C" />
<rect x="138" y="0" width="1" height="1" fill="#9E0F1C" />
<rect x="139" y="0" width="1" height="1" fill="#9E0F1C" />
<rect x="140" y="0" width="1" height="1" fill="#9E0F1C" />
<rect x="141" y="0" width="1" height="1" fill="#9E0F1C" />
<rect x="142" y="0" width="1" height="1" fill="#9E0F1C" />
<rect x="143" y="0" width="1" height="1" fill="#9E0F1C" />
<rect x="144" y="0" width="1" height="1" fill="#9E0F1C" />
<rect x="145" y="0" width="1" height="1" fill="#9E0F1C" />
<rect x="146" y="0" width="1" height="1" fill="#9E0F1C" />
<rect x="147" y="0" width="1" height="1" fill="#9E0F1C" />
<rect x="148" y="0" width="1" height="1" fill="#9E0F1C" />
<rect x="149" y="0" width="1" height="1" fill="#9E0F1C" />
<rect x="150" y="0" width="1" height="1" fill="#9E0F1C" />
<rect x="151" y="0" width="1" height="1" fill="#9E0F1C" />
<rect x="152" y="0" width="1" height="1" fill="#9E0F1C" />
<rect x="153" y="0" width="1" height="1" fill="#9E0F1C" />
<rect x="154" y="0" width="1" height="1" fill="#9E0F1C" />
<rect x="155" y="0" width="1" height="1" fill="#9E0F1C" />
<rect x="156" y="0" width="1" height="1" fill="#9E0F1C" />
<rect x="157" y="0" width="1" height="1" fill="#9E0F1C" />
<rect x="158" y="0" width="1" height="1" fill="#9E0F1C" />
<rect x="159" y="0" width="1" height="1" fill="#9E0F1C" />
<rect x="160" y="0" width="1" height="1" fill="#9E0F1C" />
<rect x="161" y="0" width="1" height="1" fill="#9E0F1C" />
<rect x="162" y="0" width="1" height="1" fill="#9E0F1C" />
<rect x="163" y="0" width="1" height="1" fill="#9E0F1C" />
<rect x="164" y="0" width="1" height="1" fill="#9E0F1C" />
<rect x="165" y="0" width="1" height="1" fill="#9E0F1C" />
<rect x="166" y="0" width="1" height="1" fill="#9E0F1C" />
<rect x="167" y="0" width="1" height="1" fill="#9E0F1C" />
<rect x="168" y="0" width="1" height="1" fill="#9E0F1C" />
<rect x="169" y="0" width="1" height="1" fill="#9E0F1C" />
<rect x="170" y="0" width="1" height="1" fill="#9E0F1C" />
<rect x="171" y="0" width="1" height="1" fill="#9E0F1C" />
<rect x="172" y="0" width="1" height="1" fill="#9E0F1C" />
<rect x="173" y="0" width="1" height="1" fill="#9E0F1C" />
<rect x="174" y="0" width="1" height="1" fill="#9E0F1C" />
<rect x="175" y="0" width="1" height="1" fill="#9E0F1C" />
<rect x="176" y="0" width="1" height="1" fill="#9E0F1C" />
<rect x="177" y="0" width="1" height="1" fill="#9E0F1C" />
<rect x="178" y="0" width="1" height="1" fill="#9E0F1C" />
<rect x="179" y="0" width="1" height="1" fill="#9E0F1C" />
<rect x="180" y="0" width="1" height="1" fill="#9E0F1C" />
<rect x="181" y="0" width="1" height="1" fill="#9E0F1C" />
<rect x="182" y="0" width="1" height="1" fill="#9E0F1C" />
<rect x="183" y="0" width="1" height="1" fill="#9E0F1C" />
<rect x="184" y="0" width="1" height="1" fill="#9E0F1C" />
<rect x="185" y="0" width="1" height="1" fill="#9E0F1C" />
<rect x="186" y="0" width="1" height="1" fill="#9E0F1C" />
<rect x="187" y="0" width="1" height="1" fill="#9E0F1C" />
<rect x="188" y="0" width="1" height="1" fill="#9E0F1C" />
<rect x="189" y="0" width="1" height="1" fill="#9E0F1C" />
<rect x="190" y="0" width="1" height="1" fill="#9E0F1C" />
<rect x="191" y="0" width="1" height="1" fill="#9E0F1C" />
<rect x="192" y="0" width="1" height="1" fill="#9E0F1C" />
<rect x="193" y="0" width="1" height="1" fill="#9E0F1C" />
<rect x="194" y="0" width="1" height="1" fill="#9E0F1C" />
<rect x="195" y="0" width="1" height="1" fill="#9E0F1C" />
<rect x="196" y="0" width="1" height="1" fill="#9E0F1C" />
<rect x="197" y="0" width="1" height="1" fill="#9E0F1C" />
<rect x="198" y="0" width="1" height="1" fill="#9E0F1C" />
<rect x="199" y="0" width="1" height="1" fill="#9E0F1C" />
<rect x="200" y="0" width="1" height="1" fill="#9E0F1C" />
<rect x="201" y="0" width="1" height="1" fill="#9E0F1C" />
<rect x="202" y="0" width="1" height="1" fill="#9E0F1C" />
<rect x="203" y="0" width="1" height="1" fill="#9E0F1C" />
<rect x="204" y="0" width="1" height="1" fill="#9E0F1C" />
<rect x="205" y="0" width="1" height="1" fill="#9E0F1C" />
<rect x="206" y="0" width="1" height="1" fill="#9E0F1C" />
<rect x="207" y="0" width="1" height="1" fill="#9E0F1C" />
<rect x="208" y="0" width="1" height="1" fill="#9E0F1C" />
<rect x="209" y="0" width="1" height="1" fill="#9E0F1C" />
<rect x="210" y="0" width="1" height="1" fill="#9E0F1C" />
<rect x="211" y="0" width="1" height="1" fill="#9E0F1C" />
<rect x="212" y="0" width="1" height="1" fill="#9E0F1C" />
<rect x="213" y="0" width="1" height="1" fill="#9E0F1C" />
<rect x="214" y="0" width="1" height="1" fill="#9E0F1C" />
<rect x="215" y="0" width="1" height="1" fill="#9E0F1C" />
<rect x="216" y="0" width="1" height="1" fill="#9E0F1C" />
<rect x="217" y="0" width="1" height="1" fill="#9E0F1C" />
<rect x="218" y="0" width="1" height="1" fill="#9E0F1C" />
<rect x="219" y="0" width="1" height="1" fill="#9E0F1C" />
<rect x="220" y="0" width="1" height="1" fill="#9E0F1C" />
<rect x="221" y="0" width="1" height="1" fill="#9E0F1C" />
<rect x="222" y="0" width="1" height="1" fill="#9E0F1C" />
<rect x="223" y="0" width="1" height="1" fill="#9E0F1C" />
<rect x="224" y="0" width="1" height="1" fill="#9E0F1C" />
<rect x="225" y="0" width="1" height="1" fill="#9E0F1C" />
<rect x="226" y="0" width="1" height="1" fill="#9E0F1C" />
<rect x="227" y="0" width="1" height="1" fill="#9E0F1C" />
<rect x="228" y="0" width="1" height="1" fill="#9E0F1C" />
<rect x="229" y="0" width="1" height="1" fill="#9E0F1C" />
<rect x="230" y="0" width="1" height="1" fill="#9E0F1C" />
<rect x="231" y="0" width="1" height="1" fill="#9E0F1C" />
<rect x="232" y="0" width="1" height="1" fill="#9E0F1C" />
<rect x="233" y="0" width="1" height="1" fill="#9E0F1C" />
<rect x="234" y="0" width="1" height="1" fill="#9E0F1C" />
<rect x="235" y="0" width="1" height="1" fill="#9E0F1C" />
<rect x="236" y="0" width="1" height="1" fill="#9E0F1C" />
<rect x="237" y="0" width="1" height="1" fill="#9E0F1C" />
<rect x="238" y="0" width="1" height="1" fill="#9E0F1C" />
<rect x="239" y="0" width="1" height="1" fill="#9E0F1C" />
<rect x="240" y="0" width="1" height="1" fill="#9E0F1C" />
<rect x="241" y="0" width="1" height="1" fill="#9E0F1C" />
<rect x="242" y="0" width="1" height="1" fill="#9E0F1C" />
<rect x="243" y="0" width="1" height="1" fill="#9E0F1C" />
<rect x="244" y="0" width="1" height="1" fill="#9E0F1C" />
<rect x="245" y="0" width="1" height="1" fill="#9E0F1C" />
<rect x="246" y="0" width="1" height="1" fill="#9E0F1C" />
<rect x="247" y="0" width="1" height="1" fill="#9E0F1C" />
<rect x="248" y="0" width="1" height="1" fill="#9E0F1C" />
<rect x="249" y="0" width="1" height="1" fill="#9E0F1C" />
<rect x="250" y="0" width="1" height="1" fill="#9E0F1C" />
<rect x="251" y="0" width="1" height="1" fill="#9E0F1C" />
<rect x="252" y="0" width="1" height="1" fill="#9E0F1C" />
<rect x="253" y="0" width="1" height="1" fill="#9E0F1C" />
<rect x="254" y="0" width="1" height="1" fill="#9E0F1C" />
<rect x="255" y="0" width="1" height="1" fill="#9E0F1C" />
<rect x="256" y="0" width="1" height="1" fill="#9E0F1C" />
<rect x="257" y="0" width="1" height="1" fill="#9E0F1C" />
<rect x="258" y="0" width="1" height="1" fill="#9E0F1C" />
<rect x="259" y="0" width="1" height="1" fill="#9E0F1C" />
<rect x="260" y="0" width="1" height="1" fill="#9E0F1C" />
<rect x="261" y="0" width="1" height="1" fill="#9E0F1C" />
<rect x="262" y="0" width="1" height="1" fill="#9E0F1C" />
<rect x="263" y="0" width="1" height="1" fill="#9E0F1C" />
<rect x="264" y="0" width="1" height="1" fill="#9E0F1C" />
<rect x="265" y="0" width="1" height="1" fill="#9E0F1C" />
<rect x="266" y="0" width="1" height="1" fill="#9E0F1C" />
<rect x="267" y="0" width="1" height="1" fill="#9E0F1C" />
<rect x="268" y="0" width="1" height="1" fill="#9E0F1C" />
<rect x="269" y="0" width="1" height="1" fill="#9E0F1C" />
<rect x="270" y="0" width="1" height="1" fill="#9E0F1C" />
<rect x="271" y="0" width="1" height="1" fill="#9E0F1C" />
<rect x="272" y="0" width="1" height="1" fill="#9E0F1C" />
<rect x="273" y="0" width="1" height="1" fill="#9E0F1C" />
<rect x="274" y="0" width="1" height="1" fill="#9E0F1C" />
<rect x="275" y="0" width="1" height="1" fill="#9E0F1C" />
<rect x="276" y="0" width="1" height="1" fill="#9E0F1C" />
<rect x="277" y="0" width="1" height="1" fill="#9E0F1C" />
<rect x="278" y="0" width="1" height="1" fill="#9E0F1C" />
<rect x="279" y="0" width="1" height="1" fill="#9E0F1C" />
<rect x="280" y="0" width="1" height="1" fill="#9E0F1C" />
<rect x="281" y="0" width="1" height="1" fill="#9E0F1C" />
<rect x="282" y="0" width="1" height="1" fill="#9E0F1C" />
<rect x="283" y="0" width="1" height="1" fill="#9E0F1C" />
<rect x="284" y="0" width="1" height="1" fill="#9E0F1C" />
<rect x="285" y="0" width="1" height="1" fill="#9E0F1C" />
<rect x="286" y="0" width="1" height="1" fill="#9E0F1C" />
<rect x="287" y="0" width="1" height="1" fill="#9E0F1C" />
<rect x="288" y="0" width="1" height="1" fill="#9E0F1C" />
<rect x="289" y="0" width="1" height="1" fill="#9E0F1C" />
<rect x="290" y="0" width="1" height="1" fill="#9E0F1C" />
<rect x="291" y="0" width="1" height="1" fill="#9E0F1C" />
<rect x="292" y="0" width="1" height="1" fill="#9E0F1C" />
<rect x="293" y="0" width="1" height="1" fill="#9E0F1C" />
<rect x="294" y="0" width="1" height="1" fill="#9E0F1C" />
<rect x="295" y="0" width="1" height="1" fill="#9E0F1C" />
<rect x="296" y="0" width="1" height="1" fill="#9E0F1C" />
<rect x="297" y="0" width="1" height="1" fill="#9E0F1C" />
<rect x="298" y="0" width="1" height="1" fill="#9E0F1C" />
<rect x="299" y="0" width="1" height="1" fill="#9E0F1C" />
<rect x="300" y="0" width="1" height="1" fill="#9E0F1C" />
<rect x="301" y="0" width="1" height="1" fill="#9E0F1C" />
<rect x="302" y="0" width="1" height="1" fill="#9E0F1C" />
<rect x="303" y="0" width="1" height="1" fill="#9E0F1C" />
<rect x="304" y="0" width="1" height="1" fill="#9E0F1C" />
<rect x="305" y="0" width="1" height="1" fill="#9E0F1C" />
<rect x="306" y="0" width="1" height="1" fill="#9E0F1C" />
<rect x="307" y="0" width="1" height="1" fill="#9E0F1C" />
<rect x="308" y="0" width="1" height="1" fill="#9E0F1C" />
<rect x="309" y="0" width="1" height="1" fill="#9E0F1C" />
<rect x="310" y="0" width="1" height="1" fill="#9E0F1C" />
<rect x="311" y="0" width="1" height="1" fill="#9E0F1C" />
<rect x="312" y="0" width="1" height="1" fill="#9E0F1C" />
<rect x="313" y="0" width="1" height="1" fill="#9E0F1C" />
<rect x="314" y="0" width="1" height="1" fill="#9E0F1C" />
<rect x="315" y="0" width="1" height="1" fill="#9E0F1C" />
<rect x="316" y="0" width="1" height="1" fill="#9E0F1C" />
<rect x="317" y="0" width="1" height="1" fill="#9E0F1C" />
<rect x="318" y="0" width="1" height="1" fill="#9E0F1C" />
<rect x="319" y="0" width="1" height="1" fill="#9E0F1C" />
<rect x="320" y="0" width="1" height="1" fill="#9E0F1C" />
<rect x="321" y="0" width="1" height="1" fill="#9E0F1C" />
<rect x="322" y="0" width="1" height="1" fill="#9E0F1C" />
<rect x="323" y="0" width="1" height="1" fill="#9E0F1C" />
<rect x="324" y="0" width="1" height="1" fill="#9E0F1C" />
<rect x="325" y="0" width="1" height="1" fill="#9E0F1C" />
<rect x="326" y="0" width="1" height="1" fill="#9E0F1C" />
<rect x="327" y="0" width="1" height="1" fill="#9E0F1C" />
<rect x="328" y="0" width="1" height="1" fill="#9E0F1C" />
<rect x="329" y="0" width="1" height="1" fill="#9E0F1C" />
<rect x="330" y="0" width="1" height="1" fill="#9E0F1C" />
<rect x="331" y="0" width="1" height="1" fill="#9E0F1C" />
<rect x="332" y="0" width="1" height="1" fill="#9E0F1C" />
<rect x="333" y="0" width="1" height="1" fill="#9E0F1C" />
<rect x="334" y="0" width="1" height="1" fill="#9E0F1C" />
<rect x="335" y="0" width="1" height="1" fill="#9E0F1C" />
<rect x="336" y="0" width="1" height="1" fill="#9E0F1C" />
<rect x="337" y="0" width="1" height="1" fill="#9E0F1C" />
<rect x="338" y="0" width="1" height="1" fill="#9E0F1C" />
<rect x="339" y="0" width="1" height="1" fill="#9E0F1C" />
<rect x="340" y="0" width="1" height="1" fill="#9E0F1C" />
<rect x="341" y="0" width="1" height="1" fill="#9E0F1C" />
<rect x="342" y="0" width="1" height="1" fill="#9E0F1C" />
<rect x="343" y="0" width="1" height="1" fill="#9E0F1C" />
<rect x="344" y="0" width="1" height="1" fill="#9E0F1C" />
<rect x="345" y="0" width="1" height="1" fill="#9E0F1C" />
<rect x="346" y="0" width="1" height="1" fill="#9E0F1C" />
<rect x="347" y="0" width="1" height="1" fill="#9E0F1C" />
<rect x="348" y="0" width="1" height="1" fill="#9E0F1C" />
<rect x="349" y="0" width="1" height="1" fill="#9E0F1C" />
<rect x="350" y="0" width="1" height="1" fill="#9E0F1C" />
<rect x="351" y="0" width="1" height="1" fill="#9E0F1C" />
<rect x="352" y="0" width="1" height="1" fill="#9E0F1C" />
<rect x="353" y="0" width="1" height="1" fill="#9E0F1C" />
<rect x="354" y="0" width="1" height="1" fill="#9E0F1C" />
<rect x="355" y="0" width="1" height="1" fill="#9E0F1C" />
<rect x="356" y="0" width="1" height="1" fill="#9E0F1C" />
<rect x="357" y="0" width="1" height="1" fill="#9E0F1C" />
<rect x="358" y="0" width="1" height="1" fill="#9E0F1C" />
<rect x="359" y="0" width="1" height="1" fill="#9E0F1C" />
<rect x="360" y="0" width="1" height="1" fill="#9E0F1C" />
<rect x="361" y="0" width="1" height="1" fill="#9E0F1C" />
<rect x="362" y="0" width="1" height="1" fill="#9E0F1C" />
<rect x="363" y="0" width="1" height="1" fill="#9E0F1C" />
<rect x="364" y="0" width="1" height="1" fill="#9E0F1C" />
<rect x="365" y="0" width="1" height="1" fill="#9E0F1C" />
<rect x="366" y="0" width="1" height="1" fill="#9E0F1C" />
<rect x="367" y="0" width="1" height="1" fill="#9E0F1C" />
<rect x="368" y="0" width="1" height="1" fill="#9E0F1C" />
<rect x="369" y="0" width="1" height="1" fill="#9E0F1C" />
<rect x="370" y="0" width="1" height="1" fill="#9E0F1C" />
<rect x="371" y="0" width="1" height="1" fill="#9E0F1C" />
<rect x="372" y="0" width="1" height="1" fill="#9E0F1C" />
<rect x="373" y="0" width="1" height="1" fill="#9E0F1C" />
<rect x="374" y="0" width="1" height="1" fill="#9E0F1C" />
<rect x="375" y="0" width="1" height="1" fill="#9E0F1C" />
<rect x="376" y="0" width="1" height="1" fill="#9E0F1C" />
<rect x="377" y="0" width="1" height="1" fill="#9E0F1C" />
<rect x="378" y="0" width="1" height="1" fill="#9E0F1C" />
<rect x="379" y="0" width="1" height="1" fill="#9E0F1C" />
<rect x="380" y="0" width="1" height="1" fill="#9E0F1C" />
<rect x="381" y="0" width="1" height="1" fill="#9E0F1C" />
<rect x="382" y="0" width="1" height="1" fill="#9E0F1C" />
<rect x="383" y="0" width="1" height="1" fill="#9E0F1C" />
<rect x="384" y="0" width="1" height="1" fill="#9E0F1C" />
<rect x="385" y="0" width="1" height="1" fill="#9E0F1C" />
<rect x="386" y="0" width="1" height="1" fill="#9E0F1C" />
<rect x="387" y="0" width="1" height="1" fill="#9E0F1C" />
<rect x="388" y="0" width="1" height="1" fill="#9E0F1C" />
<rect x="389" y="0" width="1" height="1" fill="#9E0F1C" />
<rect x="390" y="0" width="1" height="1" fill="#9E0F1C" />
<rect x="391" y="0" width="1" height="1" fill="#9E0F1C" />
<rect x="392" y="0" width="1" height="1" fill="#9E0F1C" />
<rect x="393" y="0" width="1" height="1" fill="#9E0F1C" />
<rect x="394" y="0" width="1" height="1" fill="#9E0F1C" />
<rect x="395" y="0" width="1" height="1" fill="#9E0F1C" />
<rect x="396" y="0" width="1" height="1" fill="#9E0F1C" />
<rect x="397" y="0" width="1" height="1" fill="#9E0F1C" />
<rect x="398" y="0" width="1" height="1" fill="#9E0F1C" />
<rect x="399" y="0" width="1" height="1" fill="#9E0F1C" />
<rect x="400" y="0" width="1" height="1" fill="#9E0F1C" />
<rect x="401" y="0" width="1" height="1" fill="#9E0F1C" />
<rect x="402" y="0" width="1" height="1" fill="#9E0F1C" />
<rect x="403" y="0" width="1" height="1" fill="#9E0F1C" />
<rect x="404" y="0" width="1" height="1" fill="#9E0F1C" />
<rect x="405" y="0" width="1" height="1" fill="#9E0F1C" />
<rect x="406" y="0" width="1" height="1" fill="#9E0F1C" />
<rect x="407" y="0" width="1" height="1" fill="#9E0F1C" />
<rect x="408" y="0" width="1" height="1" fill="#9E0F1C" />
<rect x="409" y="0" width="1" height="1" fill="#9E0F1C" />
<rect x="410" y="0" width="1" height="1" fill="#9E0F1C" />
<rect x="411" y="0" width="1" height="1" fill="#9E0F1C" />
<rect x="412" y="0" width="1" height="1" fill="#9E0F1C" />
<rect x="413" y="0" width="1" height="1" fill="#9E0F1C" />
<rect x="414" y="0" width="1" height="1" fill="#9E0F1C" />
<rect x="415" y="0" width="1" height="1" fill="#9E0F1C" />
<rect x="416" y="0" width="1" height="1" fill="#9E0F1C" />
<rect x="417" y="0" width="1" height="1" fill="#9E0F1C" />
<rect x="418" y="0" width="1" height="1" fill="#9E0F1C" />
<rect x="419" y="0" width="1" height="1" fill="#9E0F1C" />
<rect x="420" y="0" width="1" height="1" fill="#9E0F1C" />
<rect x="421" y="0" width="1" height="1" fill="#9E0F1C" />
<rect x="422" y="0" width="1" height="1" fill="#9E0F1C" />
<rect x="423" y="0" width="1" height="1" fill="#9E0F1C" />
<rect x="424" y="0" width="1" height="1" fill="#9E0F1C" />
<rect x="425" y="0" width="1" height="1" fill="#9E0F1C" />
<rect x="426" y="0" width="1" height="1" fill="#9E0F1C" />
<rect x="427" y="0" width="1" height="1" fill="#9E0F1C" />
<rect x="428" y="0" width="1" height="1" fill="#9E0F1C" />
<rect x="429" y="0" width="1" height="1" fill="#9E0F1C" />
<rect x="430" y="0" width="1" height="1" fill="#9E0F1C" />
<rect x="431" y="0" width="1" height="1" fill="#9E0F1C" />
<rect x="432" y="0" width="1" height="1" fill="#9E0F1C" />
<rect x="433" y="0" width="1" height="1" fill="#9E0F1C" />
<rect x="434" y="0" width="1" height="1" fill="#9E0F1C" />
<rect x="435" y="0" width="1" height="1" fill="#9E0F1C" />
<rect x="436" y="0" width="1" height="1" fill="#9E0F1C" />
<rect x="437" y="0" width="1" height="1" fill="#9E0F1C" />
<rect x="438" y="0" width="1" height="1" fill="#9E0F1C" />
<rect x="439" y="0" width="1" height="1" fill="#9E0F1C" />
<rect x="440" y="0" width="1" height="1" fill="#9E0F1C" />
<rect x="441" y="0" width="1" height="1" fill="#9E0F1C" />
<rect x="442" y="0" width="1" height="1" fill="#9E0F1C" />
<rect x="443" y="0" width="1" height="1" fill="#9E0F1C" />
<rect x="444" y="0" width="1" height="1" fill="#9E0F1C" />
<rect x="445" y="0" width="1" height="1" fill="#9E0F1C" />
<rect x="446" y="0" width="1" height="1" fill="#9E0F1C" />
<rect x="447" y="0" width="1" height="1" fill="#9E0F1C" />
<rect x="448" y="0" width="1" height="1" fill="#9E0F1C" />
<rect x="449" y="0" width="1" height="1" fill="#9E0F1C" />
<rect x="450" y="0" width="1" height="1" fill="#9E0F1C" />
<rect x="451" y="0" width="1" height="1" fill="#9E0F1C" />
<rect x="452" y="0" width="1" height="1" fill="#9E0F1C" />
<rect x="453" y="0" width="1" height="1" fill="#9E0F1C" />
<rect x="454" y="0" width="1" height="1" fill="#9E0F1C" />
<rect x="455" y="0" width="1" height="1" fill="#9E0F1C" />
<rect x="456" y="0" width="1" height="1" fill="#9E0F1C" />
<rect x="457" y="0" width="1" height="1" fill="#9E0F1C" />
<rect x="458" y="0" width="1" height="1" fill="#9E0F1C" />
<rect x="459" y="0" width="1" height="1" fill="#9E0F1C" />
<rect x="460" y="0" width="1" height="1" fill="#9E0F1C" />
<rect x="461" y="0" width="1" height="1" fill="#9E0F1C" />
<rect x="462" y="0" width="1" height="1" fill="#9E0F1C" />
<rect x="463" y="0" width="1" height="1" fill="#9E0F1C" />
<rect x="464" y="0" width="1" height="1" fill="#9E0F1C" />
<rect x="465" y="0" width="1" height="1" fill="#9E0F1C" />
<rect x="466" y="0" width="1" height="1" fill="#9E0F1C" />
<rect x="467" y="0" width="1" height="1" fill="#9E0F1C" />
<rect x="468" y="0" width="1" height="1" fill="#9E0F1C" />
<rect x="469" y="0" width="1" height="1" fill="#9E0F1C" />
<rect x="470" y="0" width="1" height="1" fill="#9E0F1C" />
<rect x="471" y="0" width="1" height="1" fill="#9E0F1C" />
<rect x="472" y="0" width="1" height="1" fill="#9E0F1C" />
<rect x="473" y="0" width="1" height="1" fill="#9E0F1C" />
<rect x="474" y="0" width="1" height="1" fill="#9E0F1C" />
<rect x="475" y="0" width="1" height="1" fill="#9E0F1C" />
<rect x="476" y="0" width="1" height="1" fill="#9E0F1C" />
<rect x="477" y="0" width="1" height="1" fill="#9E0F1C" />
<rect x="478" y="0" width="1" height="1" fill="#9E0F1C" />
<rect x="479" y="0" width="1" height="1" fill="#9E0F1C" />
<rect x="480" y="0" width="1" height="1" fill="#9E0F1C" />
<rect x="481" y="0" width="1" height="1" fill="#9E0F1C" />
<rect x="482" y="0" width="1" height="1" fill="#9E0F1C" />
<rect x="483" y="0" width="1" height="1" fill="#9E0F1C" />
<rect x="484" y="0" width="1" height="1" fill="#9E0F1C" />
<rect x="485" y="0" width="1" height="1" fill="#9E0F1C" />
<rect x="486" y="0" width="1" height="1" fill="#9E0F1C" />
<rect x="487" y="0" width="1" height="1" fill="#9E0F1C" />
<rect x="488" y="0" width="1" height="1" fill="#9E0F1C" />
<rect x="489" y="0" width="1" height="1" fill="#9E0F1C" />
<rect x="490" y="0" width="1" height="1" fill="#9E0F1C" />
<rect x="491" y="0" width="1" height="1" fill="#9E0F1C" />
<rect x="492" y="0" width="1" height="1" fill="#9E0F1C" />
<rect x="493" y="0" width="1" height="1" fill="#9E0F1C" />
<rect x="494" y="0" width="1" height="1" fill="#9E0F1C" />
<rect x="495" y="0" width="1" height="1" fill="#9E0F1C" />
<rect x="496" y="0" width="1" height="1" fill="#9E0F1C" />
<rect x="497" y="0" width="1" height="1" fill="#9E0F1C" />
<rect x="498" y="0" width="1" height="1" fill="#9E0F1C" />
<rect x="499" y="0" width="1" height="1" fill="#9E0F1C" />
<rect x="500" y="0" width="1" height="1" fill="#9E0F1C" />
<rect x="501" y="0" width="1" height="1" fill="#9E0F1C" />
<rect x="502" y="0" width="1" height="1" fill="#9E0F1C" />
<rect x="503" y="0" width="1" height="1" fill="#9E0F1C" />
<rect x="504" y="0" width="1" height="1" fill="#9E0F1C" />
<rect x="505" y="0" width="1" height="1" fill="#9E0F1C" />
<rect x="506" y="0" width="1" height="1" fill="#9E0F1C" />
<rect x="507" y="0" width="1" height="1" fill="#9E0F1C" />
<rect x="508" y="0" width="1" height="1" fill="#9E0F1C" />
<rect x="509" y="0" width="1" height="1" fill="#9E0F1C" />
<rect x="510" y="0" width="1" height="1" fill="#9E0F1C" />
<rect x="511" y="0" width="1" height="1" fill="#9E0F1C" />
</svg>